<?xml version="1.0" encoding="utf-8"?>
<!-- Generator: Adobe Illustrator 22.0.1, SVG Export Plug-In . SVG Version: 6.00 Build 0)  -->
<svg version="1.1" id="Ebene_1" xmlns="http://www.w3.org/2000/svg" xmlns:xlink="http://www.w3.org/1999/xlink" x="0px" y="0px"
	 width="97.8302841px" height="43px" viewBox="0 0 97.8302841 43" style="enable-background:new 0 0 97.8302841 43;"
	 xml:space="preserve">
<style type="text/css">
	.st0{fill:#009EE3;}
	.st1{fill:#E5007D;}
	.st2{fill:#FFED00;}
</style>
<g>
	<g>
		<path class="st0" d="M21.5515251,9.704258c-0.0909748,0.452733-0.4639854,1.2135925-1.6639805,1.2135925
			c-0.5191345,0-1.0905209-0.1987219-1.4367485-0.8445864c-0.3115082-0.5961666-0.3290424-1.4079666-0.3290424-1.8219767h5.8515739
			c0-0.7122669,0-2.484684-1.0389614-3.6274581C22.1900043,3.7954636,21.047575,3.447648,19.8703575,3.447648
			c-0.917614,0-2.0081367,0.1821561-2.908287,1.093214c-0.5538559,0.5631037-1.2770281,1.5075002-1.2770281,3.3956032
			c0,3.0478563,1.4671926,4.5388603,4.2200346,4.5388603c0.5885754,0,2.2158337-0.0169115,3.3239555-1.3253441
			c0.4281616-0.5194807,0.617012-1.0631199,0.6636047-1.4433765L21.5515251,9.704258z M18.2083797,6.8432512
			c0.0347195-0.3643818,0.0866947-0.8117309,0.4847622-1.2753701c0.3115082-0.3478847,0.7096424-0.546607,1.2466545-0.546607
			c1.4192867,0,1.6616325,1.358407,1.6616325,1.8219771H18.2083797z"/>
		<path class="st0" d="M17.4855537,24.0845966c-0.0909748,0.452734-0.4639854,1.2139378-1.6639795,1.2139378
			c-0.5191355,0-1.0905228-0.1990662-1.4367504-0.844862c-0.3115091-0.5962353-0.3290386-1.4080353-0.3290386-1.8220463h5.8515711
			c0-0.7122669,0-2.484684-1.0389614-3.6274567c-0.7440186-0.8283672-1.8867912-1.1761818-3.0640087-1.1761818
			c-0.9176149,0-2.0082054,0.1821556-2.908288,1.0931435c-0.5538549,0.5631733-1.2770271,1.507225-1.2770271,3.3957424
			c0,3.0477867,1.4671898,4.5387917,4.2200346,4.5387917c0.5885754,0,2.2158337-0.0169125,3.3238869-1.3253441
			c0.4285774-0.5191364,0.6170807-1.0631199,0.6636734-1.4433765L17.4855537,24.0845966z M14.1424084,21.2236595
			c0.0347195-0.3644505,0.0866289-0.8118,0.4847612-1.2754402c0.3115091-0.3478832,0.7096434-0.5466061,1.2466555-0.5466061
			c1.4195633,0,1.6616325,1.3584061,1.6616325,1.8220463H14.1424084z"/>
		<path class="st0" d="M84.4621277,24.0845966c-0.0909805,0.452734-0.4642563,1.2139378-1.6639786,1.2139378
			c-0.5194855,0-1.0905228-0.1990662-1.4370956-0.844862c-0.3111649-0.5962353-0.3286972-1.4080353-0.3286972-1.8220463h5.8516388
			c0-0.7122669,0-2.484684-1.0390244-3.6274567c-0.7443008-0.8283672-1.886795-1.1761818-3.0640106-1.1761818
			c-0.9176178,0-2.0081406,0.1821556-2.9085693,1.0931435c-0.5538483,0.5631733-1.2767487,1.507225-1.2767487,3.3957424
			c0,3.0477867,1.4671936,4.5387917,4.2197571,4.5387917c0.5889206,0,2.2161102-0.0169125,3.3238907-1.3253441
			c0.4285736-0.5191364,0.6173553-1.0631199,0.6640167-1.4433765L84.4621277,24.0845966z M81.1190491,21.2236595
			c0.0347214-0.3644505,0.0862808-0.8118,0.4844131-1.2754402c0.3117905-0.3478832,0.7099228-0.5466061,1.246933-0.5466061
			c1.4192886,0,1.6616364,1.3584061,1.6616364,1.8220463H81.1190491z"/>
		<path class="st0" d="M35.8387489,9.704258c-0.0909042,0.452733-0.4639168,1.2135925-1.6639099,1.2135925
			c-0.5192032,0-1.0905914-0.1987219-1.4368172-0.8445864c-0.3114433-0.5961666-0.3289757-1.4079666-0.3289757-1.8219767h5.8515739
			c0-0.7122669,0-2.484684-1.0389595-3.6274581c-0.7440186-0.8283658-1.8868599-1.1761813-3.0637321-1.1761813
			c-0.9178925,0-2.0084839,0.1821561-2.9085655,1.093214c-0.553854,0.5631037-1.2770271,1.5075002-1.2770271,3.3956032
			c0,3.0478563,1.4671898,4.5388603,4.2200394,4.5388603c0.5885696,0,2.2158279-0.0169115,3.3238831-1.3253441
			c0.4285736-0.5194807,0.617012-1.0631199,0.6636734-1.4433765L35.8387489,9.704258z M32.4956741,6.8432512
			c0.0347176-0.3643818,0.0866241-0.8117309,0.4847603-1.2753701c0.3115082-0.3478847,0.7096443-0.546607,1.2466545-0.546607
			c1.4195633,0,1.6616325,1.358407,1.6616325,1.8219771H32.4956741z"/>
		<path class="st0" d="M10.6188335,20.6318417c0-3.6301498-1.9304838-5.5278473-5.2229638-5.5278473H0v1.6830997h1.2373376
			v8.1844711H0v1.6830997h5.5278449C8.6883497,26.654665,10.6188335,24.2127075,10.6188335,20.6318417 M8.011838,20.6979675
			c0,3.1681671-1.1067424,4.2735977-2.9624724,4.2735977H3.6466446v-8.1844711h1.3695889
			C6.9050956,16.7870941,8.011838,17.7443981,8.011838,20.6979675"/>
		<path class="st0" d="M32.0791779,26.654665h4.1416245v-1.6830997h-0.9896774v-3.7786217
			c0-2.0626659-0.9407349-3.3661995-2.9869766-3.3661995c-1.517786,0-2.47509,0.7423611-2.8874435,1.9469814h-0.0330639
			c-0.2310944-1.2869663-1.1219254-1.9469814-2.541214-1.9469814c-1.4354382,0-2.508152,0.693079-2.9869766,1.9469814h-0.0327148
			c0.1319714-0.5942345,0.1319714-1.1550598,0.1319714-1.7489491h-3.3828335v1.6828232h1.1223431v5.2639656H20.693409v1.6830997
			h4.240881v-1.6830997h-0.9900208v-2.8712234c0-1.3035316,0.6104527-2.2935524,1.8316383-2.2935524
			c0.8746128,0,1.5015678,0.4289188,1.5015678,1.616972v3.5478039h-0.8415527v1.6830997h4.1416245v-1.6830997h-0.9900246v-2.8712234
			c0-1.3858776,0.7092991-2.2935524,1.8316422-2.2935524c0.8746128,0,1.5015621,0.4289188,1.5015621,1.616972v3.5478039h-0.8415489
			V26.654665z"/>
		<path class="st0" d="M45.6198311,22.4303493c0-3.0028515-1.516819-4.6036739-4.4211044-4.6036739
			c-2.8215942,0-4.4207573,2.128931-4.4207573,4.6036739c0,2.9373493,1.6652908,4.4224167,4.4207573,4.4224167
			C43.9541969,26.852766,45.6198311,25.0046272,45.6198311,22.4303493 M43.1116791,22.4799099
			c0,1.550848-0.4940109,2.4916553-1.9129524,2.4916553s-1.9126053-0.9408073-1.9126053-2.4916553
			c0-1.5673447,0.4936638-2.7720337,1.9126053-2.7720337S43.1116791,20.631773,43.1116791,22.4799099"/>
		<path class="st0" d="M46.2908211,26.654665h4.042778v-1.6830997h-0.7922668v-2.7062531l1.848484,2.0628033
			c0.2473145,0.263813,0.4784813,0.4619141,0.7261391,0.6103859v0.0330639h-0.9077415v1.6830997h4.5871086v-1.6830997h-0.9569588
			l-2.8874435-3.1185379l2.6894112-2.1454277h0.7592049v-1.6828232h-4.3893547v1.6828232h1.1881218v0.0330639
			c-0.1323204,0.0496273-0.231163,0.1157532-0.3465729,0.198101l-2.3103981,1.7657909v-7.7390547h-3.630146v1.6830988h1.3203735
			v9.3229656h-0.9407387V26.654665z"/>
		<path class="st0" d="M57.8645439,24.9715652h-0.9408073v1.6831684h4.3397942v-1.6831684h-1.0889359v-2.7885303
			c0-1.4192181,0.8911819-2.2773342,2.1450844-2.2773342c0.2308197,0,0.494976,0.0334091,0.7427063,0.0826912l0.1484718-2.0627346
			c-0.2477303-0.049284-0.4788208-0.0989132-0.7592735-0.0989132c-1.3200302,0-2.1285133,0.7258644-2.47509,2.1781464h-0.0330582
			c0.115406-0.8084869,0.148468-1.3861561,0.148468-1.9803905h-3.3497009v1.6830997h1.1223412V24.9715652z"/>
		<path class="st0" d="M72.1062851,24.9717026h-0.9738007c0.0330582-1.2211857,0.0826187-2.4093075,0.0826187-3.8281803
			c0-2.508152-1.3517838-3.3166389-3.6618347-3.3166389c-1.5346909,0-2.8877869,0.577322-3.4486084,0.8908329v2.1946411h1.9801102
			v-1.1550598c0.3961334-0.1484718,1.1054306-0.2473164,1.4354401-0.2473164c1.0892105,0,1.5167465,0.3465748,1.5167465,1.6500378
			v0.4123535c-1.6830978,0-2.737587,0.0826912-3.6122665,0.3961334c-0.9076767,0.3300076-1.7327309,1.1385632-1.7327309,2.3759003
			c0,1.3534374,0.940464,2.508152,2.8877907,2.508152c1.4520035,0,2.1269226-0.6103859,2.7049408-1.9139175h0.0327148
			c-0.082695,0.3300076-0.1154099,0.6269512-0.1154099,1.1881218v0.5280399h2.9042892V24.9717026z M69.0038986,22.9916592
			c0,1.5842552-0.8071747,2.1780758-1.7314148,2.1780758c-0.9073334,0-1.2704086-0.5280399-1.2704086-1.0395813
			c0-0.7427063,0.4771729-1.1384945,2.3583755-1.1384945H69.0038986z"/>
		<path class="st0" d="M73.4102249,18.0247765h-1.1715546v1.6830997h1.1715546v4.8347683
			c0,1.5181313,0.9076767,2.3101215,2.6070023,2.3101215c0.5611725,0,1.1550598-0.1154099,2.013176-0.4126987l0.0039291-1.6335411
			c-0.4291916,0.1653156-0.7297897,0.2642269-1.0432358,0.2642269c-0.9569626,0-1.2704697-0.2972889-1.2704697-1.5181293v-3.8447475
			h1.9297943v-1.6830997h-1.9297943v-1.9139175l-2.3104019,0.1315613V18.0247765z"/>
		<path class="st0" d="M88.7051468,24.9715652h-0.8416214v1.6831684h4.1420364v-1.6831684h-0.9900208v-2.8712234
			c0-1.303463,0.6103821-2.2934837,2.012764-2.2934837c0.8746796,0,1.5019073,0.4288502,1.5019073,1.6169739v3.5477333h-0.9407425
			v1.6831684h4.2405396v-1.6831684h-0.9900208v-3.778553c0-2.0627346-0.9404602-3.3662682-2.9866333-3.3662682
			c-1.5012894,0-2.5574341,0.8415508-2.9866333,1.980114h-0.0327148c0.1315613-0.6272984,0.1315613-1.1881237,0.1315613-1.7823582
			h-3.3824234v1.6830997h1.1220016V24.9715652z"/>
	</g>
	<polygon class="st0" points="0.0008283,0.6226032 0.0008283,2.3054264 1.238511,2.3054264 1.238511,10.5937109 
		0.1988603,10.5937109 0.1988603,12.2765341 4.9512811,12.2765341 4.9512811,10.5937109 3.6474729,10.5937109 3.6474729,7.3924813 
		7.1575189,7.3924813 7.1575189,5.6101241 3.6474729,5.6101241 3.6474729,2.3054264 6.3705697,2.3054264 6.3698797,3.0927227 
		8.3499212,3.0927227 8.3502665,0.6226032 	"/>
	<g>
		<path class="st0" d="M9.8552818,10.593504H8.9145441v1.6830988h4.3400688V10.593504h-1.0892105v-2.7886
			c0-1.4192176,0.8911095-2.2769885,2.1450129-2.2769885c0.231164,0,0.4950457,0.0327182,0.7427063,0.0823469l0.1484737-2.0623906
			c-0.2473173-0.049974-0.4788265-0.0992575-0.7592049-0.0992575c-1.3200293,0-2.1285162,0.7258642-2.4750891,2.1781447h-0.0330629
			c0.1157541-0.8084869,0.1484718-1.3861547,0.1484718-1.9803889H8.7333536v1.6831682h1.1219282V10.593504z"/>
	</g>
	<polygon class="st0" points="25.9506779,10.593504 25.0102158,10.593504 25.0102158,12.2766027 29.2507515,12.2766027 
		29.2507515,10.593504 28.2610779,10.593504 28.2610779,3.6463702 24.8286819,3.6463702 24.8286819,5.3295383 25.9506779,5.3295383 
			"/>
	<rect x="25.8251934" y="0.0008283" class="st0" width="2.310394" height="2.3089468"/>
</g>
<rect x="38.27491" y="29.5031776" class="st1" width="59.555378" height="13.4968224"/>
<g>
	<g>
		<path class="st2" d="M90.0453949,33.4406242h-0.7489853v-1.1067429h3.1367645c1.8339157,0,2.7783127,0.7595482,2.7783127,2.246273
			c0,1.4218407-1.0095596,2.4201469-2.5180893,2.4201469h-1.0638123v1.8233566h0.7489853v1.1070862h-3.0821609V38.823658h0.7489853
			V33.4406242z M92.4873581,35.8935585c0.7919846,0,1.204689-0.4775124,1.204689-1.2483139
			c0-0.7813606-0.4666061-1.2046204-1.2265015-1.2046204h-0.8359604v2.4529343H92.4873581z"/>
		<path class="st2" d="M87.9520874,35.9685173c0-2.3878403-1.269783-3.6357384-3.4352951-3.6357384h-3.5484924v1.1070862h0.8138046
			v5.382618h-0.8138046v1.1068115h3.6353912C86.6823044,39.9292946,87.9520874,38.3232269,87.9520874,35.9685173
			 M86.2375793,36.011795c0,2.0835838-0.7277985,2.810688-1.9486389,2.810688h-0.9222412v-5.382618h0.9010544
			C85.5097809,33.4398651,86.2375793,34.0690956,86.2375793,36.011795"/>
	</g>
	<polygon class="st2" points="78.0897598,33.943058 79.3803864,33.943058 79.380661,32.3326416 73.9381256,32.3326416 
		73.9381256,33.4298553 74.7446823,33.4298553 74.7446823,38.8323555 74.0671387,38.8323555 74.0671387,39.9295731 
		77.1648254,39.9295731 77.1648254,38.8323555 76.3153381,38.8323555 76.3153381,36.7455292 78.6029587,36.7455292 
		78.6029587,35.5841904 76.3153381,35.5841904 76.3153381,33.4298553 78.0901031,33.4298553 	"/>
</g>
</svg>
